Coordinates
version=1
nRows=8
nColumns=63
inDegrees=yes

Units are S.I. units (second, meters, Newtons, ...)
If the header above contains a line with 'inDegrees', this indicates whether rotational values are in degrees (yes) or radians (no).

endheader
time	pelvis_tilt	pelvis_list	pelvis_rotation	pelvis_tx	pelvis_ty	pelvis_tz	hip_flexion_r	hip_adduction_r	hip_rotation_r	knee_angle_r	knee_angle_r_beta	ankle_angle_r	subtalar_angle_r	mtp_angle_r	hip_flexion_l	hip_adduction_l	hip_rotation_l	knee_angle_l	knee_angle_l_beta	ankle_angle_l	subtalar_angle_l	mtp_angle_l	L5_S1_Flex_Ext	L5_S1_Lat_Bending	L5_S1_axial_rotation	L4_L5_Flex_Ext	L4_L5_Lat_Bending	L4_L5_axial_rotation	L3_L4_Flex_Ext	L3_L4_Lat_Bending	L3_L4_axial_rotation	L2_L3_Flex_Ext	L2_L3_Lat_Bending	L2_L3_axial_rotation	L1_L2_Flex_Ext	L1_L2_Lat_Bending	L1_L2_axial_rotation	L1_T12_Flex_Ext	L1_T12_Lat_Bending	L1_T12_axial_rotation	Abs_r3	Abs_r2	Abs_r1	Abs_t1	Abs_t2	neck_flexion	neck_bending	neck_rotation	arm_flex_r	arm_add_r	arm_rot_r	elbow_flex_r	pro_sup_r	wrist_flex_r	wrist_dev_r	arm_flex_l	arm_add_l	arm_rot_l	elbow_flex_l	pro_sup_l	wrist_flex_l	wrist_dev_l
      4.35000000	     -2.85108926	     -3.53333001	     74.86057792	      0.19339963	      0.95224851	      0.43037532	      1.26936371	     -1.49383152	      2.47646686	      9.60720931	      0.16767743	     31.83866525	     14.71920198	      0.00000000	      2.64687233	      1.08617250	    -10.54611707	     12.33239225	      0.21524085	     30.02669698	     -9.15048600	      0.00000000	     -0.00399332	      0.13138105	      2.27925483	     -0.00741600	      0.17473679	      2.42170825	     -0.00656063	      0.31943988	      2.42170825	     -0.00456397	      0.31943988	      1.99434797	     -0.00370820	      0.26791223	      1.85189455	     -0.00228178	      0.20350924	      1.70944112	     -0.02852390	      1.48620869	     12.67653156	      0.00000000	      0.00000000	     28.16463005	     -0.65709673	      8.25487246	      3.04868479	     -9.63696527	    131.38272011	      3.51939871	      2.69966137	     -1.39499977	    -16.54723240	     12.91709402	    -10.90280580	    111.13151277	     17.89494484	     18.99363712	     -5.17177081	    -13.15539968
      4.36666667	     -2.91456470	     -3.55097063	     74.99610684	      0.19303720	      0.95233013	      0.43039864	      1.30379861	     -1.57848896	      2.18208192	      9.58856582	      0.16735204	     31.81357486	     14.89595762	      0.00000000	      2.75383878	      1.12709452	    -10.64956619	     12.48843481	      0.21796431	     30.02121780	     -8.86842385	      0.00000000	     -0.00939403	      0.12455120	      2.27550834	     -0.01744565	      0.16565310	      2.41772761	     -0.01543345	      0.30283379	      2.41772761	     -0.01073643	      0.30283379	      1.99106980	     -0.00872329	      0.25398481	      1.84885053	     -0.00536775	      0.19292981	      1.70663125	     -0.06710060	      1.40894810	     12.65569473	      0.00000000	      0.00000000	     28.14387672	     -0.73578337	      7.89286922	      3.05510860	     -9.62721492	    130.88880035	      3.56181645	      2.54604061	     -1.41684459	    -16.74971132	     13.00584926	    -10.92522292	    110.81378605	     17.63407034	     19.32009821	     -4.31813188	    -12.97324125
      4.38333333	     -2.98393243	     -3.50384425	     75.02656571	      0.19283734	      0.95250998	      0.43038578	      1.28021638	     -1.65010820	      2.32675683	      9.52221902	      0.16619407	     31.70982601	     14.74622735	      0.00000000	      2.78536238	      1.21099825	    -10.59902126	     12.59573686	      0.21983708	     30.01451032	     -8.79179547	      0.00000000	     -0.02407486	      0.11514476	      2.29143729	     -0.04470942	      0.15314253	      2.43465212	     -0.03955259	      0.27996296	      2.43465212	     -0.02751516	      0.27996296	      2.00500763	     -0.02235591	      0.23480319	      1.86179280	     -0.01375637	      0.17835923	      1.71857797	     -0.17196431	      1.30254053	     12.74428677	      0.00000000	      0.00000000	     28.11448198	     -0.41062660	      7.90826219	      3.06859639	     -9.60588677	    129.94356084	      3.66389651	      2.52693976	     -1.32577037	    -16.88572344	     13.06320016	    -10.78976008	    111.29639730	     17.14575953	     18.93179360	     -3.63794143	    -12.89733877
      4.40000000	     -3.14443168	     -3.46926243	     75.01996870	      0.19282688	      0.95259011	      0.43041459	      1.28820360	     -1.80597075	      2.42113258	      9.41083876	      0.16425012	     31.66394705	     14.82232104	      0.00000000	      2.85681796	      1.38649823	    -10.38079445	     12.64489673	      0.22069508	     30.10493966	     -8.82580187	      0.00000000	     -0.03632630	      0.09130377	      2.30788727	     -0.06746157	      0.12143402	      2.45213023	     -0.05968048	      0.22199599	      2.45213023	     -0.04151733	      0.22199599	      2.01940136	     -0.03373260	      0.18618665	      1.87515841	     -0.02075685	      0.14142954	      1.73091545	     -0.25947512	      1.03284654	     12.83577665	      0.00000000	      0.00000000	     28.08446433	     -0.02119624	      7.91051418	      3.09629845	     -9.51517195	    129.16002982	      3.72878499	      2.44062179	     -1.25565960	    -16.97683354	     12.60022640	    -11.02986882	    107.18369768	     17.06113926	     22.72547390	     -3.61324601	    -12.16594220
      4.41666667	     -3.28957094	     -3.40340425	     75.05247076	      0.19276545	      0.95269104	      0.43036525	      1.27194696	     -1.96266976	      2.40569452	      9.34666123	      0.16313001	     31.67874125	     15.02633025	      0.00000000	      2.89660109	      1.57581948	     -9.93243960	     12.68398568	      0.22137731	     30.17628596	     -9.09239299	      0.00000000	     -0.05479992	      0.06839930	      2.31294059	     -0.10176893	      0.09097106	      2.45749938	     -0.09003079	      0.16630605	      2.45749938	     -0.06263083	      0.16630605	      2.02382302	     -0.05088721	      0.13947984	      1.87926423	     -0.03131267	      0.10595051	      1.73470544	     -0.39143036	      0.77374651	     12.86388169	      0.00000000	      0.00000000	     28.05557817	      0.43846247	      7.95869138	      3.14287661	     -9.42697982	    128.60326311	      3.76001714	      2.41572624	     -1.13656129	    -17.01017839	     12.25635985	    -11.14989983	    104.69744514	     16.93565073	     24.72806930	     -3.71714792	    -11.64726890
      4.43333333	     -3.38886946	     -3.37067325	     75.09023286	      0.19278949	      0.95269968	      0.43034773	      1.26117239	     -2.03443570	      2.67731297	      9.26935788	      0.16178081	     31.70075633	     14.81363322	      0.00000000	      2.96075418	      1.62301791	    -10.19074824	     12.79717685	      0.22335287	     30.47635227	     -8.48894073	      0.00000000	     -0.06901904	      0.04955906	      2.32195206	     -0.12817526	      0.06591355	      2.46707407	     -0.11339138	      0.12049790	      2.46707407	     -0.07888186	      0.12049790	      2.03170806	     -0.06409108	      0.10106084	      1.88658605	     -0.03943748	      0.07676699	      1.74146405	     -0.49299609	      0.56062202	     12.91400079	      0.00000000	      0.00000000	     28.03919365	      0.72722746	      7.80278322	      3.16310813	     -9.33026811	    128.53282933	      3.70034440	      2.34896170	     -1.05716584	    -17.01164341	     12.04299373	    -11.23721658	    103.39613713	     16.82158283	     25.69336314	     -3.80488338	    -11.15651060
      4.45000000	     -3.39471199	     -3.37832874	     75.33131917	      0.19261889	      0.95259349	      0.43038529	      1.19035643	     -1.98730383	      2.90561148	      9.11350674	      0.15906070	     31.66797230	     14.30531750	      0.00000000	      3.07332798	      1.50370335	    -10.83820712	     13.03156242	      0.22744367	     30.89653705	     -7.24994239	      0.00000000	     -0.07853322	      0.04212815	      2.28006024	     -0.14584405	      0.05603045	      2.42256400	     -0.12902223	      0.10243039	      2.42256400	     -0.08975562	      0.10243039	      1.99505271	     -0.07292595	      0.08590773	      1.85254894	     -0.04487388	      0.06525651	      1.71004518	     -0.56095495	      0.47656211	     12.68101102	      0.00000000	      0.00000000	     28.04888936	      0.85778308	      7.53350087	      3.28122654	     -9.45681343	    125.76709714	      4.39020027	      3.38405364	     -1.12975661	    -17.44054932	     11.77663283	    -11.46436572	    101.80116001	     16.99105823	     27.00220115	     -4.23670346	    -10.98540833
      4.46666667	     -3.48667889	     -3.42112687	     75.12367559	      0.19280997	      0.95236060	      0.43055228	      1.40053483	     -2.11062012	      2.45054308	      9.33261882	      0.16288493	     31.95009923	     15.11011028	      0.00000000	      3.16649840	      1.63757451	    -10.50804903	     13.12472997	      0.22906975	     30.59751955	     -8.33370317	      0.00000000	     -0.07639497	      0.02824466	      2.33354216	     -0.14187311	      0.03756540	      2.47938855	     -0.12550930	      0.06867407	      2.47938855	     -0.08731182	      0.06867407	      2.04184939	     -0.07094037	      0.05759652	      1.89600301	     -0.04365209	      0.04375098	      1.75015662	     -0.54568166	      0.31950927	     12.97846144	      0.00000000	      0.00000000	     28.06776671	      0.35562044	      6.76764397	      3.19902569	     -9.23779954	    128.02409934	      3.76246231	      2.51598767	     -1.01135194	    -17.00960947	     11.71612223	    -11.40071876	    102.07251576	     16.64524872	     27.83190203	     -4.51236591	    -10.52589329
